{
  "asset": {
    "version": "2.0",
    "generator": "THREE.GLTFExporter"
  },
  "scenes": [
    {
      "nodes": [
        0
      ]
    }
  ],
  "scene": 0,
  "nodes": [
    {
      "children": [
        19
      ],
      "matrix": [
        0.01,
        0,
        0,
        0,
        0,
        0.01,
        0,
        0,
        0,
        0,
        0.01,
        0,
        0,
        0,
        0,
        1
      ]
    },
    {
      "matrix": [
        0.6782844626542883,
        0.5767679584694602,
        -0.45526795385218405,
        0,
        -0.6477958779481674,
        0.7618139540027886,
        0,
        0,
        0.34682948005489145,
        0.2949207038673413,
        0.8903544744624163,
        0,
        0,
        0,
        0,
        1
      ],
      "name": "Directional Light",
      "extensions": {
        "KHR_lights_punctual": {
          "light": 0
        }
      }
    },
    {
      "matrix": [
        1,
        0,
        0,
        0,
        0,
        1,
        0,
        0,
        0,
        0,
        1,
        0,
        -13.351135205031028,
        -161.4932557255478,
        -1.961785526244057,
        1
      ],
      "name": "Text",
      "mesh": 0
    },
    {
      "matrix": [
        1,
        0,
        0,
        0,
        0,
        1,
        0,
        0,
        0,
        0,
        1,
        0,
        -46.03249354243337,
        64.21966677071029,
        23.606263532070443,
        1
      ],
      "name": "music",
      "mesh": 1
    },
    {
      "matrix": [
        1,
        0,
        0,
        0,
        0,
        1,
        0,
        0,
        0,
        0,
        1,
        0,
        0,
        0,
        -37.60626353207044,
        1
      ],
      "name": "icon-bg",
      "mesh": 2
    },
    {
      "matrix": [
        1,
        0,
        0,
        0,
        0,
        1,
        0,
        0,
        0,
        0,
        1.0029951799348384,
        0,
        0,
        35.23357147686352,
        -12.314467565327504,
        1
      ],
      "name": "Container",
      "children": [
        3,
        4
      ]
    },
    {
      "matrix": [
        1,
        0,
        0,
        0,
        0,
        1,
        0,
        0,
        0,
        0,
        1,
        0,
        -388.3025049097085,
        -20.728277855812877,
        2.961785526244057,
        1
      ],
      "name": "Icon",
      "children": [
        2,
        5
      ]
    },
    {
      "matrix": [
        1,
        0,
        0,
        0,
        0,
        1,
        0,
        0,
        0,
        0,
        1,
        0,
        -13.351135205031028,
        -161.4932557255478,
        -1.961785526244057,
        1
      ],
      "name": "Text",
      "mesh": 0
    },
    {
      "matrix": [
        1,
        0,
        0,
        0,
        0,
        1,
        0,
        0,
        0,
        0,
        1,
        0,
        -46.03249354243337,
        64.21966677071029,
        23.606263532070443,
        1
      ],
      "name": "music",
      "mesh": 3
    },
    {
      "matrix": [
        1,
        0,
        0,
        0,
        0,
        1,
        0,
        0,
        0,
        0,
        1,
        0,
        0,
        0,
        -37.60626353207044,
        1
      ],
      "name": "icon-bg",
      "mesh": 4
    },
    {
      "matrix": [
        1,
        0,
        0,
        0,
        0,
        1,
        0,
        0,
        0,
        0,
        1.0029951799348384,
        0,
        0,
        35.23357147686352,
        -12.314467565327504,
        1
      ],
      "name": "Container",
      "children": [
        8,
        9
      ]
    },
    {
      "matrix": [
        1,
        0,
        0,
        0,
        0,
        1,
        0,
        0,
        0,
        0,
        1,
        0,
        11.699999999999989,
        -20.728277855812877,
        2.961785526244057,
        1
      ],
      "name": "Icon Instance",
      "children": [
        7,
        10
      ]
    },
    {
      "matrix": [
        1,
        0,
        0,
        0,
        0,
        1,
        0,
        0,
        0,
        0,
        1,
        0,
        -13.351135205031028,
        -161.4932557255478,
        -1.961785526244057,
        1
      ],
      "name": "Text",
      "mesh": 5
    },
    {
      "matrix": [
        1,
        0,
        0,
        0,
        0,
        1,
        0,
        0,
        0,
        0,
        1,
        0,
        -46.03249354243337,
        64.21966677071029,
        23.606263532070443,
        1
      ],
      "name": "music",
      "mesh": 6
    },
    {
      "matrix": [
        1,
        0,
        0,
        0,
        0,
        1,
        0,
        0,
        0,
        0,
        1,
        0,
        0,
        0,
        -37.60626353207044,
        1
      ],
      "name": "icon-bg",
      "mesh": 7
    },
    {
      "matrix": [
        1,
        0,
        0,
        0,
        0,
        1,
        0,
        0,
        0,
        0,
        1.0029951799348384,
        0,
        0,
        35.23357147686352,
        -12.314467565327504,
        1
      ],
      "name": "Container",
      "children": [
        13,
        14
      ]
    },
    {
      "matrix": [
        1,
        0,
        0,
        0,
        0,
        1,
        0,
        0,
        0,
        0,
        1,
        0,
        411.7,
        -20.728277855812877,
        2.961785526244057,
        1
      ],
      "name": "Icon Instance 2",
      "children": [
        12,
        15
      ]
    },
    {
      "matrix": [
        0.8744791374132028,
        -1.4120058483557685e-8,
        0.4850631280865003,
        0,
        0.1549851510970917,
        0.947581083159502,
        -0.27940954489365005,
        0,
        -0.45963664036766305,
        0.3195154000017289,
        0.828639890418789,
        0,
        -512.0230727015901,
        294.00706305415775,
        879.5051170818161,
        1
      ],
      "camera": 0
    },
    {
      "matrix": [
        1,
        0,
        0,
        0,
        0,
        1,
        0,
        0,
        0,
        0,
        1,
        0,
        0,
        1,
        0,
        1
      ],
      "name": "Default Ambient Light"
    },
    {
      "name": "Scene",
      "children": [
        1,
        6,
        11,
        16,
        17,
        18
      ]
    }
  ],
  "extensions": {
    "KHR_lights_punctual": {
      "lights": [
        {
          "name": "Directional Light",
          "color": [
            1,
            1,
            1
          ],
          "intensity": 0.7,
          "type": "directional"
        }
      ]
    }
  },
  "bufferViews": [
    {
      "buffer": 0,
      "byteOffset": 0,
      "byteLength": 8748,
      "target": 34962,
      "byteStride": 12
    },
    {
      "buffer": 0,
      "byteOffset": 8748,
      "byteLength": 8748,
      "target": 34962,
      "byteStride": 12
    },
    {
      "buffer": 0,
      "byteOffset": 17496,
      "byteLength": 5832,
      "target": 34962,
      "byteStride": 8
    },
    {
      "buffer": 0,
      "byteOffset": 23328,
      "byteLength": 4304,
      "target": 34963
    },
    {
      "buffer": 0,
      "byteOffset": 27632,
      "byteLength": 12984,
      "target": 34962,
      "byteStride": 12
    },
    {
      "buffer": 0,
      "byteOffset": 40616,
      "byteLength": 12984,
      "target": 34962,
      "byteStride": 12
    },
    {
      "buffer": 0,
      "byteOffset": 53600,
      "byteLength": 8656,
      "target": 34962,
      "byteStride": 8
    },
    {
      "buffer": 0,
      "byteOffset": 62256,
      "byteLength": 19248,
      "target": 34963
    },
    {
      "buffer": 0,
      "byteOffset": 81504,
      "byteLength": 7872,
      "target": 34962,
      "byteStride": 12
    },
    {
      "buffer": 0,
      "byteOffset": 89376,
      "byteLength": 7872,
      "target": 34962,
      "byteStride": 12
    },
    {
      "buffer": 0,
      "byteOffset": 97248,
      "byteLength": 5248,
      "target": 34962,
      "byteStride": 8
    },
    {
      "buffer": 0,
      "byteOffset": 102496,
      "byteLength": 7824,
      "target": 34963
    },
    {
      "buffer": 0,
      "byteOffset": 110320,
      "byteLength": 19872,
      "target": 34962,
      "byteStride": 12
    },
    {
      "buffer": 0,
      "byteOffset": 130192,
      "byteLength": 19872,
      "target": 34962,
      "byteStride": 12
    },
    {
      "buffer": 0,
      "byteOffset": 150064,
      "byteLength": 13248,
      "target": 34962,
      "byteStride": 8
    },
    {
      "buffer": 0,
      "byteOffset": 163312,
      "byteLength": 31440,
      "target": 34963
    },
    {
      "buffer": 0,
      "byteOffset": 194752,
      "byteLength": 11148,
      "target": 34962,
      "byteStride": 12
    },
    {
      "buffer": 0,
      "byteOffset": 205900,
      "byteLength": 11148,
      "target": 34962,
      "byteStride": 12
    },
    {
      "buffer": 0,
      "byteOffset": 217048,
      "byteLength": 7432,
      "target": 34962,
      "byteStride": 8
    },
    {
      "buffer": 0,
      "byteOffset": 224480,
      "byteLength": 5492,
      "target": 34963
    },
    {
      "buffer": 0,
      "byteOffset": 229972,
      "byteLength": 23880,
      "target": 34962,
      "byteStride": 12
    },
    {
      "buffer": 0,
      "byteOffset": 253852,
      "byteLength": 23880,
      "target": 34962,
      "byteStride": 12
    },
    {
      "buffer": 0,
      "byteOffset": 277732,
      "byteLength": 15920,
      "target": 34962,
      "byteStride": 8
    },
    {
      "buffer": 0,
      "byteOffset": 293652,
      "byteLength": 39312,
      "target": 34963
    }
  ],
  "buffers": [
    {
      "byteLength": 332964,
      "uri": "data:application/octet-stream;base64,"
    }
  ],
  "accessors": [
    {
      "bufferView": 0,
      "componentType": 5126,
      "count": 729,
      "max": [
        55.43260955810547,
        28.812471389770508,
        0
      ],
      "min": [
        -53.361328125,
        -1.8672170639038086,
        0
      ],
      "type": "VEC3"
    },
    {
      "bufferView": 1,
      "componentType": 5126,
      "count": 729,
      "max": [
        0,
        0,
        1
      ],
      "min": [
        0,
        0,
        1
      ],
      "type": "VEC3"
    },
    {
      "bufferView": 2,
      "componentType": 5126,
      "count": 729,
      "max": [
        1,
        1
      ],
      "min": [
        0,
        0
      ],
      "type": "VEC2"
    },
    {
      "bufferView": 3,
      "componentType": 5123,
      "count": 2151,
      "max": [
        728
      ],
      "min": [
        0
      ],
      "type": "SCALAR"
    },
    {
      "bufferView": 4,
      "componentType": 5126,
      "count": 1082,
      "max": [
        105.88526916503906,
        20.949626922607422,
        14
      ],
      "min": [
        -38.783470153808594,
        -135.35888671875,
        0
      ],
      "type": "VEC3"
    },
    {
      "bufferView": 5,
      "componentType": 5126,
      "count": 1082,
      "max": [
        1,
        0.9999955296516418,
        1
      ],
      "min": [
        -1,
        -0.9991238713264465,
        -1
      ],
      "type": "VEC3"
    },
    {
      "bufferView": 6,
      "componentType": 5126,
      "count": 1082,
      "max": [
        1,
        1
      ],
      "min": [
        0,
        0
      ],
      "type": "VEC2"
    },
    {
      "bufferView": 7,
      "componentType": 5125,
      "count": 4812,
      "max": [
        1081
      ],
      "min": [
        0
      ],
      "type": "SCALAR"
    },
    {
      "bufferView": 8,
      "componentType": 5126,
      "count": 656,
      "max": [
        142.16127014160156,
        142.16127014160156,
        57.982723236083984
      ],
      "min": [
        -142.16127014160156,
        -142.16127014160156,
        0
      ],
      "type": "VEC3"
    },
    {
      "bufferView": 9,
      "componentType": 5126,
      "count": 656,
      "max": [
        1,
        1,
        1
      ],
      "min": [
        -1,
        -1,
        -1
      ],
      "type": "VEC3"
    },
    {
      "bufferView": 10,
      "componentType": 5126,
      "count": 656,
      "max": [
        1,
        1
      ],
      "min": [
        0,
        0
      ],
      "type": "VEC2"
    },
    {
      "bufferView": 11,
      "componentType": 5125,
      "count": 1956,
      "max": [
        655
      ],
      "min": [
        0
      ],
      "type": "SCALAR"
    },
    {
      "bufferView": 12,
      "componentType": 5126,
      "count": 1656,
      "max": [
        142.16127014160156,
        142.16127014160156,
        57.982723236083984
      ],
      "min": [
        -142.16127014160156,
        -142.16127014160156,
        0
      ],
      "type": "VEC3"
    },
    {
      "bufferView": 13,
      "componentType": 5126,
      "count": 1656,
      "max": [
        1,
        1,
        1
      ],
      "min": [
        -1,
        -1,
        -1
      ],
      "type": "VEC3"
    },
    {
      "bufferView": 14,
      "componentType": 5126,
      "count": 1656,
      "max": [
        1,
        1
      ],
      "min": [
        0,
        0
      ],
      "type": "VEC2"
    },
    {
      "bufferView": 15,
      "componentType": 5125,
      "count": 7860,
      "max": [
        1655
      ],
      "min": [
        0
      ],
      "type": "SCALAR"
    },
    {
      "bufferView": 16,
      "componentType": 5126,
      "count": 929,
      "max": [
        65.97362518310547,
        30.042940139770508,
        0
      ],
      "min": [
        -63.9638671875,
        -10.418974876403809,
        0
      ],
      "type": "VEC3"
    },
    {
      "bufferView": 17,
      "componentType": 5126,
      "count": 929,
      "max": [
        0,
        0,
        1
      ],
      "min": [
        0,
        0,
        1
      ],
      "type": "VEC3"
    },
    {
      "bufferView": 18,
      "componentType": 5126,
      "count": 929,
      "max": [
        1,
        1
      ],
      "min": [
        0,
        0
      ],
      "type": "VEC2"
    },
    {
      "bufferView": 19,
      "componentType": 5123,
      "count": 2745,
      "max": [
        928
      ],
      "min": [
        0
      ],
      "type": "SCALAR"
    },
    {
      "bufferView": 20,
      "componentType": 5126,
      "count": 1990,
      "max": [
        142.16127014160156,
        142.16127014160156,
        57.982723236083984
      ],
      "min": [
        -142.16127014160156,
        -142.16127014160156,
        0
      ],
      "type": "VEC3"
    },
    {
      "bufferView": 21,
      "componentType": 5126,
      "count": 1990,
      "max": [
        1,
        1,
        1
      ],
      "min": [
        -1,
        -1,
        -1
      ],
      "type": "VEC3"
    },
    {
      "bufferView": 22,
      "componentType": 5126,
      "count": 1990,
      "max": [
        1,
        1
      ],
      "min": [
        0,
        0
      ],
      "type": "VEC2"
    },
    {
      "bufferView": 23,
      "componentType": 5125,
      "count": 9828,
      "max": [
        1989
      ],
      "min": [
        0
      ],
      "type": "SCALAR"
    }
  ],
  "meshes": [
    {
      "primitives": [
        {
          "mode": 4,
          "attributes": {
            "POSITION": 0,
            "NORMAL": 1,
            "TEXCOORD_0": 2
          },
          "extras": {
            "parameters": {
              "type": "TextGeometry",
              "width": 223.86948941074195,
              "height": 76.19681742358807,
              "depth": 0,
              "horizontalAlign": 3,
              "verticalAlign": 1,
              "fontSize": 42,
              "lineHeight": 1.2,
              "letterSpacing": 0,
              "text": {
                "textValue": "Music"
              },
              "textTransform": 1,
              "font": "Roboto_regular",
              "extrudeBevelSize": 0,
              "extrudeBevelSegments": 1
            },
            "type": "TextGeometry"
          },
          "indices": 3
        }
      ]
    },
    {
      "primitives": [
        {
          "mode": 4,
          "attributes": {
            "POSITION": 4,
            "NORMAL": 5,
            "TEXCOORD_0": 6
          },
          "extras": {
            "parameters": {
              "width": 144.66873861086478,
              "subdivisions": 8,
              "roundness": 4,
              "extrudeBevelSize": 1,
              "extrudeBevelSegments": 2,
              "windingRule": 0,
              "height": 156.30851812658142,
              "depth": 14,
              "shape": {
                "points": [
                  {
                    "fi": 0.4795856217027205,
                    "id": "1254516d-bab8-4e8d-b2b3-38198f4d9053",
                    "data": {
                      "position": [
                        0,
                        0
                      ],
                      "controlPrevious": {
                        "position": [
                          0,
                          0
                        ]
                      },
                      "controlNext": {
                        "position": [
                          0,
                          0
                        ]
                      },
                      "areControlsDirectionsMirrored": true,
                      "roundness": 4
                    }
                  },
                  {
                    "fi": 0.8856511997372603,
                    "id": "a1402224-ee32-4a05-936a-aa2892b504e4",
                    "data": {
                      "position": [
                        105.8852701356696,
                        21.68584934803198
                      ],
                      "controlPrevious": {
                        "position": [
                          105.8852701356696,
                          21.68584934803198
                        ]
                      },
                      "controlNext": {
                        "position": [
                          105.8852701356696,
                          21.68584934803198
                        ]
                      },
                      "areControlsDirectionsMirrored": true,
                      "roundness": 4
                    }
                  },
                  {
                    "fi": 1.348220971042063,
                    "id": "ac7f8f0a-bd8f-46e3-bb31-1e14a9280ba2",
                    "data": {
                      "position": [
                        105.88527013566959,
                        -94.25669700116468
                      ],
                      "controlPrevious": {
                        "position": [
                          105.88527013566959,
                          -94.25669700116468
                        ]
                      },
                      "controlNext": {
                        "position": [
                          105.88527013566959,
                          -94.25669700116468
                        ]
                      },
                      "areControlsDirectionsMirrored": true,
                      "roundness": 4
                    }
                  },
                  {
                    "fi": 1.875666025903566,
                    "id": "17ebde1d-fc87-45ed-af8b-5527950e6d81",
                    "data": {
                      "position": [
                        88.043563575228,
                        -114.4903791805278
                      ],
                      "controlPrevious": {
                        "position": [
                          105.88527013566959,
                          -106.94933363794748
                        ]
                      },
                      "controlNext": {
                        "position": [
                          70.36420277958074,
                          -121.96280702659958
                        ]
                      },
                      "areControlsDirectionsMirrored": true,
                      "roundness": 4
                    }
                  },
                  {
                    "fi": 2.414775500198849,
                    "id": "810058ae-4606-4210-91bd-b456131da7cc",
                    "data": {
                      "position": [
                        51.00939788461966,
                        -104.43957552318764
                      ],
                      "controlPrevious": {
                        "position": [
                          54.51326802800696,
                          -114.06234775654184
                        ]
                      },
                      "controlNext": {
                        "position": [
                          47.7801655829744,
                          -95.57104853568859
                        ]
                      },
                      "areControlsDirectionsMirrored": true,
                      "roundness": 4
                    }
                  },
                  {
                    "fi": 2.9425628412193503,
                    "id": "4bbf8f97-d545-4e5a-8394-9ccf6fa33222",
                    "data": {
                      "position": [
                        66.61670710721387,
                        -77.00248310199905
                      ],
                      "controlPrevious": {
                        "position": [
                          50.9582787266952,
                          -84.53907476541671
                        ]
                      },
                      "controlNext": {
                        "position": [
                          77.34690872581663,
                          -71.83790680479126
                        ]
                      },
                      "areControlsDirectionsMirrored": true,
                      "roundness": 4
                    }
                  },
                  {
                    "fi": 3.512880714569299,
                    "id": "5e6804af-6a4b-43f2-ade7-1feaedb2a76e",
                    "data": {
                      "position": [
                        88.73011876773842,
                        -74.22393966045237
                      ],
                      "controlPrevious": {
                        "position": [
                          88.73011876773842,
                          -74.22393966045237
                        ]
                      },
                      "controlNext": {
                        "position": [
                          88.73011876773842,
                          -74.22393966045237
                        ]
                      },
                      "areControlsDirectionsMirrored": true,
                      "roundness": 4
                    }
                  },
                  {
                    "fi": 4.060980521570724,
                    "id": "b609423d-52ad-44d6-b108-c9f2a6ab8ff7",
                    "data": {
                      "position": [
                        88.73011876773842,
                        -11.404615993284835
                      ],
                      "controlPrevious": {
                        "position": [
                          88.73011876773842,
                          -11.404615993284835
                        ]
                      },
                      "controlNext": {
                        "position": [
                          88.73011876773842,
                          -11.404615993284835
                        ]
                      },
                      "areControlsDirectionsMirrored": true,
                      "roundness": 4
                    }
                  },
                  {
                    "fi": 4.497908264999689,
                    "id": "1860f90a-08aa-4563-bd9f-d9973a7acce9",
                    "data": {
                      "position": [
                        17.141451836965814,
                        -26.079085321047266
                      ],
                      "controlPrevious": {
                        "position": [
                          17.141451836965814,
                          -26.079085321047266
                        ]
                      },
                      "controlNext": {
                        "position": [
                          17.141451836965814,
                          -26.079085321047266
                        ]
                      },
                      "areControlsDirectionsMirrored": true,
                      "roundness": 4
                    }
                  },
                  {
                    "fi": 5.060482712544281,
                    "id": "e5bfa206-f262-4624-a968-eb16dd6971dd",
                    "data": {
                      "position": [
                        17.141451836965814,
                        -113.45990766243692
                      ],
                      "controlPrevious": {
                        "position": [
                          17.141451836965814,
                          -113.45990766243692
                        ]
                      },
                      "controlNext": {
                        "position": [
                          17.141451836965814,
                          -113.45990766243692
                        ]
                      },
                      "areControlsDirectionsMirrored": true,
                      "roundness": 4
                    }
                  },
                  {
                    "fi": 5.508918026949213,
                    "id": "46f7c2a7-3763-47ed-a728-1c19cabb5511",
                    "data": {
                      "position": [
                        -4.668471896397193,
                        -133.81565896149797
                      ],
                      "controlPrevious": {
                        "position": [
                          15.048927460039806,
                          -127.86654757498852
                        ]
                      },
                      "controlNext": {
                        "position": [
                          -21.185342056074603,
                          -138.7991103061783
                        ]
                      },
                      "areControlsDirectionsMirrored": true,
                      "roundness": 4
                    }
                  },
                  {
                    "fi": 5.916284699714719,
                    "id": "669998c0-cab0-40a4-a9ea-9710ae59b763",
                    "data": {
                      "position": [
                        -38.23302192844852,
                        -121.41217857100531
                      ],
                      "controlPrevious": {
                        "position": [
                          -36.010109662164204,
                          -131.21757029377108
                        ]
                      },
                      "controlNext": {
                        "position": [
                          -41.442674170779355,
                          -107.25422100909316
                        ]
                      },
                      "areControlsDirectionsMirrored": true,
                      "roundness": 4
                    }
                  },
                  {
                    "fi": 6.4357352384022946,
                    "id": "568c3f9a-e6e6-457a-ad0c-dcd75b0c2c83",
                    "data": {
                      "position": [
                        -19.47039765781534,
                        -93.70026021027539
                      ],
                      "controlPrevious": {
                        "position": [
                          -30.079325575224345,
                          -97.39814173306235
                        ]
                      },
                      "controlNext": {
                        "position": [
                          -8.61055629713361,
                          -89.91491950283562
                        ]
                      },
                      "areControlsDirectionsMirrored": true,
                      "roundness": 4
                    }
                  },
                  {
                    "fi": 6.835045972618952,
                    "id": "6eb6899b-ddb7-4201-85c1-b318f2ad9ae0",
                    "data": {
                      "position": [
                        0,
                        -92.32939671934213
                      ],
                      "controlPrevious": {
                        "position": [
                          0,
                          -92.32939671934213
                        ]
                      },
                      "controlNext": {
                        "position": [
                          0,
                          -92.32939671934213
                        ]
                      },
                      "areControlsDirectionsMirrored": true,
                      "roundness": 4
                    }
                  }
                ],
                "isClosed": true,
                "roundness": 4,
                "shapeHoles": []
              },
              "type": "VectorGeometry"
            },
            "shape": {
              "points": [
                0,
                0,
                0,
                0,
                0,
                0,
                4,
                105.8852701356696,
                21.68584934803198,
                105.8852701356696,
                21.68584934803198,
                105.8852701356696,
                21.68584934803198,
                4,
                105.88527013566959,
                -94.25669700116468,
                105.88527013566959,
                -94.25669700116468,
                105.88527013566959,
                -94.25669700116468,
                4,
                88.043563575228,
                -114.4903791805278,
                105.88527013566959,
                -106.94933363794748,
                70.36420277958074,
                -121.96280702659958,
                4,
                51.00939788461966,
                -104.43957552318764,
                54.51326802800696,
                -114.06234775654184,
                47.7801655829744,
                -95.57104853568859,
                4,
                66.61670710721387,
                -77.00248310199905,
                50.9582787266952,
                -84.53907476541671,
                77.34690872581663,
                -71.83790680479126,
                4,
                88.73011876773842,
                -74.22393966045237,
                88.73011876773842,
                -74.22393966045237,
                88.73011876773842,
                -74.22393966045237,
                4,
                88.73011876773842,
                -11.404615993284835,
                88.73011876773842,
                -11.404615993284835,
                88.73011876773842,
                -11.404615993284835,
                4,
                17.141451836965814,
                -26.079085321047266,
                17.141451836965814,
                -26.079085321047266,
                17.141451836965814,
                -26.079085321047266,
                4,
                17.141451836965814,
                -113.45990766243692,
                17.141451836965814,
                -113.45990766243692,
                17.141451836965814,
                -113.45990766243692,
                4,
                -4.668471896397193,
                -133.81565896149797,
                15.048927460039806,
                -127.86654757498852,
                -21.185342056074603,
                -138.7991103061783,
                4,
                -38.23302192844852,
                -121.41217857100531,
                -36.010109662164204,
                -131.21757029377108,
                -41.442674170779355,
                -107.25422100909316,
                4,
                -19.47039765781534,
                -93.70026021027539,
                -30.079325575224345,
                -97.39814173306235,
                -8.61055629713361,
                -89.91491950283562,
                4,
                0,
                -92.32939671934213,
                0,
                -92.32939671934213,
                0,
                -92.32939671934213,
                4
              ],
              "shapeHoles": [],
              "isClosed": true,
              "roundness": 4
            },
            "type": "VectorGeometry"
          },
          "indices": 7
        }
      ]
    },
    {
      "primitives": [
        {
          "mode": 4,
          "attributes": {
            "POSITION": 8,
            "NORMAL": 9,
            "TEXCOORD_0": 10
          },
          "extras": {
            "shape": {
              "points": [
                -142.16127553689026,
                142.16127553689026,
                -142.16127553689026,
                142.16127553689026,
                -142.16127553689026,
                142.16127553689026,
                64,
                142.16127553689026,
                142.16127553689026,
                142.16127553689026,
                142.16127553689026,
                142.16127553689026,
                142.16127553689026,
                64,
                142.16127553689026,
                -142.16127553689026,
                142.16127553689026,
                -142.16127553689026,
                142.16127553689026,
                -142.16127553689026,
                64,
                -142.16127553689026,
                -142.16127553689026,
                -142.16127553689026,
                -142.16127553689026,
                -142.16127553689026,
                -142.16127553689026,
                64
              ],
              "shapeHoles": [],
              "isClosed": true,
              "roundness": 64
            },
            "parameters": {
              "width": 284.3225510737805,
              "depth": 57.98272305585124,
              "cornerRadius": [
                64,
                64,
                64,
                64
              ],
              "cornerType": 1,
              "extrudeBevelSize": 0,
              "extrudeBevelSegments": 3,
              "height": 284.3225510737805,
              "type": "RectangleGeometry"
            },
            "ui": {
              "enabledIndieCorners": false
            },
            "type": "RectangleGeometry"
          },
          "indices": 11
        }
      ]
    },
    {
      "primitives": [
        {
          "mode": 4,
          "attributes": {
            "POSITION": 4,
            "NORMAL": 5,
            "TEXCOORD_0": 6
          },
          "extras": {
            "parameters": {
              "width": 144.66873861086478,
              "subdivisions": 8,
              "roundness": 4,
              "extrudeBevelSize": 1,
              "extrudeBevelSegments": 2,
              "windingRule": 0,
              "height": 156.30851812658142,
              "depth": 14,
              "shape": {
                "points": [
                  {
                    "fi": 0.4795856217027205,
                    "id": "1254516d-bab8-4e8d-b2b3-38198f4d9053",
                    "data": {
                      "position": [
                        0,
                        0
                      ],
                      "controlPrevious": {
                        "position": [
                          0,
                          0
                        ]
                      },
                      "controlNext": {
                        "position": [
                          0,
                          0
                        ]
                      },
                      "areControlsDirectionsMirrored": true,
                      "roundness": 4
                    }
                  },
                  {
                    "fi": 0.8856511997372603,
                    "id": "a1402224-ee32-4a05-936a-aa2892b504e4",
                    "data": {
                      "position": [
                        105.8852701356696,
                        21.68584934803198
                      ],
                      "controlPrevious": {
                        "position": [
                          105.8852701356696,
                          21.68584934803198
                        ]
                      },
                      "controlNext": {
                        "position": [
                          105.8852701356696,
                          21.68584934803198
                        ]
                      },
                      "areControlsDirectionsMirrored": true,
                      "roundness": 4
                    }
                  },
                  {
                    "fi": 1.348220971042063,
                    "id": "ac7f8f0a-bd8f-46e3-bb31-1e14a9280ba2",
                    "data": {
                      "position": [
                        105.88527013566959,
                        -94.25669700116468
                      ],
                      "controlPrevious": {
                        "position": [
                          105.88527013566959,
                          -94.25669700116468
                        ]
                      },
                      "controlNext": {
                        "position": [
                          105.88527013566959,
                          -94.25669700116468
                        ]
                      },
                      "areControlsDirectionsMirrored": true,
                      "roundness": 4
                    }
                  },
                  {
                    "fi": 1.875666025903566,
                    "id": "17ebde1d-fc87-45ed-af8b-5527950e6d81",
                    "data": {
                      "position": [
                        88.043563575228,
                        -114.4903791805278
                      ],
                      "controlPrevious": {
                        "position": [
                          105.88527013566959,
                          -106.94933363794748
                        ]
                      },
                      "controlNext": {
                        "position": [
                          70.36420277958074,
                          -121.96280702659958
                        ]
                      },
                      "areControlsDirectionsMirrored": true,
                      "roundness": 4
                    }
                  },
                  {
                    "fi": 2.414775500198849,
                    "id": "810058ae-4606-4210-91bd-b456131da7cc",
                    "data": {
                      "position": [
                        51.00939788461966,
                        -104.43957552318764
                      ],
                      "controlPrevious": {
                        "position": [
                          54.51326802800696,
                          -114.06234775654184
                        ]
                      },
                      "controlNext": {
                        "position": [
                          47.7801655829744,
                          -95.57104853568859
                        ]
                      },
                      "areControlsDirectionsMirrored": true,
                      "roundness": 4
                    }
                  },
                  {
                    "fi": 2.9425628412193503,
                    "id": "4bbf8f97-d545-4e5a-8394-9ccf6fa33222",
                    "data": {
                      "position": [
                        66.61670710721387,
                        -77.00248310199905
                      ],
                      "controlPrevious": {
                        "position": [
                          50.9582787266952,
                          -84.53907476541671
                        ]
                      },
                      "controlNext": {
                        "position": [
                          77.34690872581663,
                          -71.83790680479126
                        ]
                      },
                      "areControlsDirectionsMirrored": true,
                      "roundness": 4
                    }
                  },
                  {
                    "fi": 3.512880714569299,
                    "id": "5e6804af-6a4b-43f2-ade7-1feaedb2a76e",
                    "data": {
                      "position": [
                        88.73011876773842,
                        -74.22393966045237
                      ],
                      "controlPrevious": {
                        "position": [
                          88.73011876773842,
                          -74.22393966045237
                        ]
                      },
                      "controlNext": {
                        "position": [
                          88.73011876773842,
                          -74.22393966045237
                        ]
                      },
                      "areControlsDirectionsMirrored": true,
                      "roundness": 4
                    }
                  },
                  {
                    "fi": 4.060980521570724,
                    "id": "b609423d-52ad-44d6-b108-c9f2a6ab8ff7",
                    "data": {
                      "position": [
                        88.73011876773842,
                        -11.404615993284835
                      ],
                      "controlPrevious": {
                        "position": [
                          88.73011876773842,
                          -11.404615993284835
                        ]
                      },
                      "controlNext": {
                        "position": [
                          88.73011876773842,
                          -11.404615993284835
                        ]
                      },
                      "areControlsDirectionsMirrored": true,
                      "roundness": 4
                    }
                  },
                  {
                    "fi": 4.497908264999689,
                    "id": "1860f90a-08aa-4563-bd9f-d9973a7acce9",
                    "data": {
                      "position": [
                        17.141451836965814,
                        -26.079085321047266
                      ],
                      "controlPrevious": {
                        "position": [
                          17.141451836965814,
                          -26.079085321047266
                        ]
                      },
                      "controlNext": {
                        "position": [
                          17.141451836965814,
                          -26.079085321047266
                        ]
                      },
                      "areControlsDirectionsMirrored": true,
                      "roundness": 4
                    }
                  },
                  {
                    "fi": 5.060482712544281,
                    "id": "e5bfa206-f262-4624-a968-eb16dd6971dd",
                    "data": {
                      "position": [
                        17.141451836965814,
                        -113.45990766243692
                      ],
                      "controlPrevious": {
                        "position": [
                          17.141451836965814,
                          -113.45990766243692
                        ]
                      },
                      "controlNext": {
                        "position": [
                          17.141451836965814,
                          -113.45990766243692
                        ]
                      },
                      "areControlsDirectionsMirrored": true,
                      "roundness": 4
                    }
                  },
                  {
                    "fi": 5.508918026949213,
                    "id": "46f7c2a7-3763-47ed-a728-1c19cabb5511",
                    "data": {
                      "position": [
                        -4.668471896397193,
                        -133.81565896149797
                      ],
                      "controlPrevious": {
                        "position": [
                          15.048927460039806,
                          -127.86654757498852
                        ]
                      },
                      "controlNext": {
                        "position": [
                          -21.185342056074603,
                          -138.7991103061783
                        ]
                      },
                      "areControlsDirectionsMirrored": true,
                      "roundness": 4
                    }
                  },
                  {
                    "fi": 5.916284699714719,
                    "id": "669998c0-cab0-40a4-a9ea-9710ae59b763",
                    "data": {
                      "position": [
                        -38.23302192844852,
                        -121.41217857100531
                      ],
                      "controlPrevious": {
                        "position": [
                          -36.010109662164204,
                          -131.21757029377108
                        ]
                      },
                      "controlNext": {
                        "position": [
                          -41.442674170779355,
                          -107.25422100909316
                        ]
                      },
                      "areControlsDirectionsMirrored": true,
                      "roundness": 4
                    }
                  },
                  {
                    "fi": 6.4357352384022946,
                    "id": "568c3f9a-e6e6-457a-ad0c-dcd75b0c2c83",
                    "data": {
                      "position": [
                        -19.47039765781534,
                        -93.70026021027539
                      ],
                      "controlPrevious": {
                        "position": [
                          -30.079325575224345,
                          -97.39814173306235
                        ]
                      },
                      "controlNext": {
                        "position": [
                          -8.61055629713361,
                          -89.91491950283562
                        ]
                      },
                      "areControlsDirectionsMirrored": true,
                      "roundness": 4
                    }
                  },
                  {
                    "fi": 6.835045972618952,
                    "id": "6eb6899b-ddb7-4201-85c1-b318f2ad9ae0",
                    "data": {
                      "position": [
                        0,
                        -92.32939671934213
                      ],
                      "controlPrevious": {
                        "position": [
                          0,
                          -92.32939671934213
                        ]
                      },
                      "controlNext": {
                        "position": [
                          0,
                          -92.32939671934213
                        ]
                      },
                      "areControlsDirectionsMirrored": true,
                      "roundness": 4
                    }
                  }
                ],
                "isClosed": true,
                "roundness": 4,
                "shapeHoles": []
              },
              "type": "VectorGeometry"
            },
            "shape": {
              "points": [
                0,
                0,
                0,
                0,
                0,
                0,
                4,
                105.8852701356696,
                21.68584934803198,
                105.8852701356696,
                21.68584934803198,
                105.8852701356696,
                21.68584934803198,
                4,
                105.88527013566959,
                -94.25669700116468,
                105.88527013566959,
                -94.25669700116468,
                105.88527013566959,
                -94.25669700116468,
                4,
                88.043563575228,
                -114.4903791805278,
                105.88527013566959,
                -106.94933363794748,
                70.36420277958074,
                -121.96280702659958,
                4,
                51.00939788461966,
                -104.43957552318764,
                54.51326802800696,
                -114.06234775654184,
                47.7801655829744,
                -95.57104853568859,
                4,
                66.61670710721387,
                -77.00248310199905,
                50.9582787266952,
                -84.53907476541671,
                77.34690872581663,
                -71.83790680479126,
                4,
                88.73011876773842,
                -74.22393966045237,
                88.73011876773842,
                -74.22393966045237,
                88.73011876773842,
                -74.22393966045237,
                4,
                88.73011876773842,
                -11.404615993284835,
                88.73011876773842,
                -11.404615993284835,
                88.73011876773842,
                -11.404615993284835,
                4,
                17.141451836965814,
                -26.079085321047266,
                17.141451836965814,
                -26.079085321047266,
                17.141451836965814,
                -26.079085321047266,
                4,
                17.141451836965814,
                -113.45990766243692,
                17.141451836965814,
                -113.45990766243692,
                17.141451836965814,
                -113.45990766243692,
                4,
                -4.668471896397193,
                -133.81565896149797,
                15.048927460039806,
                -127.86654757498852,
                -21.185342056074603,
                -138.7991103061783,
                4,
                -38.23302192844852,
                -121.41217857100531,
                -36.010109662164204,
                -131.21757029377108,
                -41.442674170779355,
                -107.25422100909316,
                4,
                -19.47039765781534,
                -93.70026021027539,
                -30.079325575224345,
                -97.39814173306235,
                -8.61055629713361,
                -89.91491950283562,
                4,
                0,
                -92.32939671934213,
                0,
                -92.32939671934213,
                0,
                -92.32939671934213,
                4
              ],
              "shapeHoles": [],
              "isClosed": true,
              "roundness": 4
            },
            "type": "VectorGeometry"
          },
          "indices": 7
        }
      ]
    },
    {
      "primitives": [
        {
          "mode": 4,
          "attributes": {
            "POSITION": 12,
            "NORMAL": 13,
            "TEXCOORD_0": 14
          },
          "extras": {
            "shape": {
              "points": [
                -142.16127553689026,
                142.16127553689026,
                -142.16127553689026,
                142.16127553689026,
                -142.16127553689026,
                142.16127553689026,
                128,
                142.16127553689026,
                142.16127553689026,
                142.16127553689026,
                142.16127553689026,
                142.16127553689026,
                142.16127553689026,
                128,
                142.16127553689026,
                -142.16127553689026,
                142.16127553689026,
                -142.16127553689026,
                142.16127553689026,
                -142.16127553689026,
                128,
                -142.16127553689026,
                -142.16127553689026,
                -142.16127553689026,
                -142.16127553689026,
                -142.16127553689026,
                -142.16127553689026,
                128
              ],
              "shapeHoles": [],
              "isClosed": true,
              "roundness": 128
            },
            "parameters": {
              "width": 284.3225510737805,
              "depth": 57.98272305585124,
              "cornerRadius": [
                128,
                128,
                128,
                128
              ],
              "cornerType": 1,
              "extrudeBevelSize": 8,
              "extrudeBevelSegments": 3,
              "height": 284.3225510737805,
              "type": "RectangleGeometry"
            },
            "ui": {
              "enabledIndieCorners": false
            },
            "type": "RectangleGeometry"
          },
          "indices": 15
        }
      ]
    },
    {
      "primitives": [
        {
          "mode": 4,
          "attributes": {
            "POSITION": 16,
            "NORMAL": 17,
            "TEXCOORD_0": 18
          },
          "extras": {
            "parameters": {
              "type": "TextGeometry",
              "width": 223.86948941074195,
              "height": 76.19681742358807,
              "depth": 0,
              "horizontalAlign": 3,
              "verticalAlign": 1,
              "fontSize": 42,
              "lineHeight": 1.2,
              "letterSpacing": 0,
              "text": "Playlist",
              "textTransform": 1,
              "font": "Roboto_regular",
              "extrudeBevelSize": 0,
              "extrudeBevelSegments": 1
            },
            "type": "TextGeometry"
          },
          "indices": 19
        }
      ]
    },
    {
      "primitives": [
        {
          "mode": 4,
          "attributes": {
            "POSITION": 4,
            "NORMAL": 5,
            "TEXCOORD_0": 6
          },
          "extras": {
            "parameters": {
              "width": 144.66873861086478,
              "subdivisions": 8,
              "roundness": 4,
              "extrudeBevelSize": 1,
              "extrudeBevelSegments": 2,
              "windingRule": 0,
              "height": 156.30851812658142,
              "depth": 14,
              "shape": {
                "points": [
                  {
                    "fi": 0.4795856217027205,
                    "id": "1254516d-bab8-4e8d-b2b3-38198f4d9053",
                    "data": {
                      "position": [
                        0,
                        0
                      ],
                      "controlPrevious": {
                        "position": [
                          0,
                          0
                        ]
                      },
                      "controlNext": {
                        "position": [
                          0,
                          0
                        ]
                      },
                      "areControlsDirectionsMirrored": true,
                      "roundness": 4
                    }
                  },
                  {
                    "fi": 0.8856511997372603,
                    "id": "a1402224-ee32-4a05-936a-aa2892b504e4",
                    "data": {
                      "position": [
                        105.8852701356696,
                        21.68584934803198
                      ],
                      "controlPrevious": {
                        "position": [
                          105.8852701356696,
                          21.68584934803198
                        ]
                      },
                      "controlNext": {
                        "position": [
                          105.8852701356696,
                          21.68584934803198
                        ]
                      },
                      "areControlsDirectionsMirrored": true,
                      "roundness": 4
                    }
                  },
                  {
                    "fi": 1.348220971042063,
                    "id": "ac7f8f0a-bd8f-46e3-bb31-1e14a9280ba2",
                    "data": {
                      "position": [
                        105.88527013566959,
                        -94.25669700116468
                      ],
                      "controlPrevious": {
                        "position": [
                          105.88527013566959,
                          -94.25669700116468
                        ]
                      },
                      "controlNext": {
                        "position": [
                          105.88527013566959,
                          -94.25669700116468
                        ]
                      },
                      "areControlsDirectionsMirrored": true,
                      "roundness": 4
                    }
                  },
                  {
                    "fi": 1.875666025903566,
                    "id": "17ebde1d-fc87-45ed-af8b-5527950e6d81",
                    "data": {
                      "position": [
                        88.043563575228,
                        -114.4903791805278
                      ],
                      "controlPrevious": {
                        "position": [
                          105.88527013566959,
                          -106.94933363794748
                        ]
                      },
                      "controlNext": {
                        "position": [
                          70.36420277958074,
                          -121.96280702659958
                        ]
                      },
                      "areControlsDirectionsMirrored": true,
                      "roundness": 4
                    }
                  },
                  {
                    "fi": 2.414775500198849,
                    "id": "810058ae-4606-4210-91bd-b456131da7cc",
                    "data": {
                      "position": [
                        51.00939788461966,
                        -104.43957552318764
                      ],
                      "controlPrevious": {
                        "position": [
                          54.51326802800696,
                          -114.06234775654184
                        ]
                      },
                      "controlNext": {
                        "position": [
                          47.7801655829744,
                          -95.57104853568859
                        ]
                      },
                      "areControlsDirectionsMirrored": true,
                      "roundness": 4
                    }
                  },
                  {
                    "fi": 2.9425628412193503,
                    "id": "4bbf8f97-d545-4e5a-8394-9ccf6fa33222",
                    "data": {
                      "position": [
                        66.61670710721387,
                        -77.00248310199905
                      ],
                      "controlPrevious": {
                        "position": [
                          50.9582787266952,
                          -84.53907476541671
                        ]
                      },
                      "controlNext": {
                        "position": [
                          77.34690872581663,
                          -71.83790680479126
                        ]
                      },
                      "areControlsDirectionsMirrored": true,
                      "roundness": 4
                    }
                  },
                  {
                    "fi": 3.512880714569299,
                    "id": "5e6804af-6a4b-43f2-ade7-1feaedb2a76e",
                    "data": {
                      "position": [
                        88.73011876773842,
                        -74.22393966045237
                      ],
                      "controlPrevious": {
                        "position": [
                          88.73011876773842,
                          -74.22393966045237
                        ]
                      },
                      "controlNext": {
                        "position": [
                          88.73011876773842,
                          -74.22393966045237
                        ]
                      },
                      "areControlsDirectionsMirrored": true,
                      "roundness": 4
                    }
                  },
                  {
                    "fi": 4.060980521570724,
                    "id": "b609423d-52ad-44d6-b108-c9f2a6ab8ff7",
                    "data": {
                      "position": [
                        88.73011876773842,
                        -11.404615993284835
                      ],
                      "controlPrevious": {
                        "position": [
                          88.73011876773842,
                          -11.404615993284835
                        ]
                      },
                      "controlNext": {
                        "position": [
                          88.73011876773842,
                          -11.404615993284835
                        ]
                      },
                      "areControlsDirectionsMirrored": true,
                      "roundness": 4
                    }
                  },
                  {
                    "fi": 4.497908264999689,
                    "id": "1860f90a-08aa-4563-bd9f-d9973a7acce9",
                    "data": {
                      "position": [
                        17.141451836965814,
                        -26.079085321047266
                      ],
                      "controlPrevious": {
                        "position": [
                          17.141451836965814,
                          -26.079085321047266
                        ]
                      },
                      "controlNext": {
                        "position": [
                          17.141451836965814,
                          -26.079085321047266
                        ]
                      },
                      "areControlsDirectionsMirrored": true,
                      "roundness": 4
                    }
                  },
                  {
                    "fi": 5.060482712544281,
                    "id": "e5bfa206-f262-4624-a968-eb16dd6971dd",
                    "data": {
                      "position": [
                        17.141451836965814,
                        -113.45990766243692
                      ],
                      "controlPrevious": {
                        "position": [
                          17.141451836965814,
                          -113.45990766243692
                        ]
                      },
                      "controlNext": {
                        "position": [
                          17.141451836965814,
                          -113.45990766243692
                        ]
                      },
                      "areControlsDirectionsMirrored": true,
                      "roundness": 4
                    }
                  },
                  {
                    "fi": 5.508918026949213,
                    "id": "46f7c2a7-3763-47ed-a728-1c19cabb5511",
                    "data": {
                      "position": [
                        -4.668471896397193,
                        -133.81565896149797
                      ],
                      "controlPrevious": {
                        "position": [
                          15.048927460039806,
                          -127.86654757498852
                        ]
                      },
                      "controlNext": {
                        "position": [
                          -21.185342056074603,
                          -138.7991103061783
                        ]
                      },
                      "areControlsDirectionsMirrored": true,
                      "roundness": 4
                    }
                  },
                  {
                    "fi": 5.916284699714719,
                    "id": "669998c0-cab0-40a4-a9ea-9710ae59b763",
                    "data": {
                      "position": [
                        -38.23302192844852,
                        -121.41217857100531
                      ],
                      "controlPrevious": {
                        "position": [
                          -36.010109662164204,
                          -131.21757029377108
                        ]
                      },
                      "controlNext": {
                        "position": [
                          -41.442674170779355,
                          -107.25422100909316
                        ]
                      },
                      "areControlsDirectionsMirrored": true,
                      "roundness": 4
                    }
                  },
                  {
                    "fi": 6.4357352384022946,
                    "id": "568c3f9a-e6e6-457a-ad0c-dcd75b0c2c83",
                    "data": {
                      "position": [
                        -19.47039765781534,
                        -93.70026021027539
                      ],
                      "controlPrevious": {
                        "position": [
                          -30.079325575224345,
                          -97.39814173306235
                        ]
                      },
                      "controlNext": {
                        "position": [
                          -8.61055629713361,
                          -89.91491950283562
                        ]
                      },
                      "areControlsDirectionsMirrored": true,
                      "roundness": 4
                    }
                  },
                  {
                    "fi": 6.835045972618952,
                    "id": "6eb6899b-ddb7-4201-85c1-b318f2ad9ae0",
                    "data": {
                      "position": [
                        0,
                        -92.32939671934213
                      ],
                      "controlPrevious": {
                        "position": [
                          0,
                          -92.32939671934213
                        ]
                      },
                      "controlNext": {
                        "position": [
                          0,
                          -92.32939671934213
                        ]
                      },
                      "areControlsDirectionsMirrored": true,
                      "roundness": 4
                    }
                  }
                ],
                "isClosed": true,
                "roundness": 4,
                "shapeHoles": []
              },
              "type": "VectorGeometry"
            },
            "shape": {
              "points": [
                0,
                0,
                0,
                0,
                0,
                0,
                4,
                105.8852701356696,
                21.68584934803198,
                105.8852701356696,
                21.68584934803198,
                105.8852701356696,
                21.68584934803198,
                4,
                105.88527013566959,
                -94.25669700116468,
                105.88527013566959,
                -94.25669700116468,
                105.88527013566959,
                -94.25669700116468,
                4,
                88.043563575228,
                -114.4903791805278,
                105.88527013566959,
                -106.94933363794748,
                70.36420277958074,
                -121.96280702659958,
                4,
                51.00939788461966,
                -104.43957552318764,
                54.51326802800696,
                -114.06234775654184,
                47.7801655829744,
                -95.57104853568859,
                4,
                66.61670710721387,
                -77.00248310199905,
                50.9582787266952,
                -84.53907476541671,
                77.34690872581663,
                -71.83790680479126,
                4,
                88.73011876773842,
                -74.22393966045237,
                88.73011876773842,
                -74.22393966045237,
                88.73011876773842,
                -74.22393966045237,
                4,
                88.73011876773842,
                -11.404615993284835,
                88.73011876773842,
                -11.404615993284835,
                88.73011876773842,
                -11.404615993284835,
                4,
                17.141451836965814,
                -26.079085321047266,
                17.141451836965814,
                -26.079085321047266,
                17.141451836965814,
                -26.079085321047266,
                4,
                17.141451836965814,
                -113.45990766243692,
                17.141451836965814,
                -113.45990766243692,
                17.141451836965814,
                -113.45990766243692,
                4,
                -4.668471896397193,
                -133.81565896149797,
                15.048927460039806,
                -127.86654757498852,
                -21.185342056074603,
                -138.7991103061783,
                4,
                -38.23302192844852,
                -121.41217857100531,
                -36.010109662164204,
                -131.21757029377108,
                -41.442674170779355,
                -107.25422100909316,
                4,
                -19.47039765781534,
                -93.70026021027539,
                -30.079325575224345,
                -97.39814173306235,
                -8.61055629713361,
                -89.91491950283562,
                4,
                0,
                -92.32939671934213,
                0,
                -92.32939671934213,
                0,
                -92.32939671934213,
                4
              ],
              "shapeHoles": [],
              "isClosed": true,
              "roundness": 4
            },
            "type": "VectorGeometry"
          },
          "indices": 7
        }
      ]
    },
    {
      "primitives": [
        {
          "mode": 4,
          "attributes": {
            "POSITION": 20,
            "NORMAL": 21,
            "TEXCOORD_0": 22
          },
          "extras": {
            "shape": {
              "points": [
                -142.16127553689026,
                142.16127553689026,
                -142.16127553689026,
                142.16127553689026,
                -142.16127553689026,
                142.16127553689026,
                142.16127553689026,
                142.16127553689026,
                142.16127553689026,
                142.16127553689026,
                142.16127553689026,
                142.16127553689026,
                142.16127553689026,
                142.16127553689026,
                142.16127553689026,
                -142.16127553689026,
                142.16127553689026,
                -142.16127553689026,
                142.16127553689026,
                -142.16127553689026,
                142.16127553689026,
                -142.16127553689026,
                -142.16127553689026,
                -142.16127553689026,
                -142.16127553689026,
                -142.16127553689026,
                -142.16127553689026,
                142.16127553689026
              ],
              "shapeHoles": [],
              "isClosed": true,
              "roundness": 142.16127553689026
            },
            "parameters": {
              "width": 284.3225510737805,
              "depth": 57.98272305585124,
              "cornerRadius": [
                200,
                200,
                200,
                200
              ],
              "cornerType": 0,
              "extrudeBevelSize": 18,
              "extrudeBevelSegments": 4,
              "height": 284.3225510737805,
              "type": "RectangleGeometry"
            },
            "ui": {
              "enabledIndieCorners": false
            },
            "type": "RectangleGeometry"
          },
          "indices": 23
        }
      ]
    }
  ],
  "cameras": [
    {
      "type": "orthographic",
      "orthographic": {
        "xmag": 25.600000000000005,
        "ymag": 12.890000000000002,
        "zfar": 100000,
        "znear": 0
      }
    }
  ],
  "extensionsUsed": [
    "KHR_lights_punctual"
  ]
}